<?xml version="1.0" encoding="UTF-8"?>
<svg id="Layer_1" data-name="Layer 1" xmlns="http://www.w3.org/2000/svg" viewBox="0 0 497.57 429.54">
  <defs>
    <style>
      .cls-1 {
        fill: #aa7552;
        stroke-width: 1px;
      }

      .cls-1, .cls-2, .cls-3, .cls-4 {
        stroke: #fff;
        stroke-miterlimit: 10;
      }

      .cls-5, .cls-4 {
        fill: #fff;
      }

      .cls-2 {
        fill: none;
      }

      .cls-2, .cls-3 {
        stroke-width: .79px;
      }

      .cls-3 {
        fill: #5c5c5c;
      }

      .cls-6 {
        fill: #96846f;
      }

      .cls-4 {
        stroke-width: 2px;
      }

      .cls-7 {
        fill: #77a97a;
      }

      .cls-8 {
        fill: #98918a;
      }

      .cls-9 {
        fill: #967a60;
      }

      .cls-10 {
        fill: #8d7f72;
      }

      .cls-11 {
        fill: #609365;
      }

      .cls-12 {
        fill: #b79f82;
      }

      .cls-13 {
        fill: #7cb180;
      }

      .cls-14 {
        fill: #7f756c;
      }

      .cls-15 {
        fill: #bb8d75;
      }

      .cls-16 {
        fill: #776c63;
      }

      .cls-17 {
        fill: #ededed;
      }
    </style>
  </defs>
  <path class="cls-7" d="m483,346.3c0,14.66-11.88,26.55-26.55,26.55-3.91,0-7.63-.85-10.97-2.38-4.42,5.92-10.14,9.49-16.37,9.49-14.07,0-25.47-18.15-25.47-40.55s11.4-40.55,25.47-40.55c9.71,0,18.14,8.64,22.44,21.35,1.59-.3,3.22-.46,4.9-.46,14.67,0,26.55,11.89,26.55,26.55Z"/>
  <rect class="cls-9" x="94.2" y="322.73" width="28.41" height="82.71"/>
  <path class="cls-13" d="m0,204.86c0,78.93,60.95,124.01,108.4,124.01s108.4-45.08,108.4-124.01S155.86,39.94,108.4,39.94,0,125.93,0,204.86Z"/>
  <path class="cls-11" d="m216.09,204.85c0,78.93-60.95,124.01-108.4,124.01V39.94c47.45,0,108.4,86,108.4,164.92Z"/>
  <rect class="cls-14" x="365.79" y="39.94" width="36.55" height="78.88"/>
  <polygon class="cls-10" points="296.54 0 148.66 136.42 444.42 136.42 296.54 0"/>
  <polygon class="cls-16" points="444.42 136.41 296.54 136.41 296.54 0 444.42 136.41"/>
  <g>
    <polygon class="cls-6" points="173.6 135.73 172.86 136.42 172.86 135.73 173.6 135.73"/>
    <rect class="cls-6" x="296.54" y="135.73" width="123.69" height="292.59"/>
    <polygon class="cls-6" points="294.91 23.03 173.6 135.73 172.86 135.73 294.91 23.03"/>
    <polygon class="cls-6" points="420.23 135.73 296.54 135.73 296.54 21.51 296.55 21.51 420.23 135.73"/>
  </g>
  <polygon class="cls-12" points="173.6 135.73 172.86 136.42 172.86 135.73 173.6 135.73"/>
  <polygon class="cls-12" points="296.54 21.51 296.54 428.31 172.86 428.31 172.86 136.41 173.6 135.72 294.91 23.02 295.52 22.45 296.54 21.51"/>
  <polygon class="cls-12" points="296.54 21.51 296.54 21.52 295.52 22.46 296.54 21.51"/>
  <path class="cls-1" d="m339.58,311.22v117.82h-86.08v-117.82c0-23.88,19.27-43.23,43.04-43.23s43.04,19.36,43.04,43.23Z"/>
  <path class="cls-15" d="m296.54,268.58v160.07h-42.36v-117.09c0-23.73,18.96-42.97,42.36-42.97Z"/>
  <circle class="cls-5" cx="262.16" cy="367.47" r="3.39"/>
  <rect class="cls-3" x="198.39" y="150.32" width="60.38" height="74.91"/>
  <line class="cls-2" x1="228.58" y1="150.32" x2="228.58" y2="225.23"/>
  <line class="cls-2" x1="198.39" y1="187.78" x2="258.77" y2="187.78"/>
  <rect class="cls-4" x="195.86" y="217.24" width="65.67" height="10.71"/>
  <rect class="cls-3" x="323.68" y="172.69" width="60.38" height="74.91"/>
  <line class="cls-2" x1="353.87" y1="172.69" x2="353.87" y2="247.6"/>
  <line class="cls-2" x1="323.68" y1="210.15" x2="384.06" y2="210.15"/>
  <rect class="cls-4" x="321.15" y="239.61" width="65.67" height="10.71"/>
  <rect class="cls-8" x="360.22" y="28.77" width="47.69" height="14.56"/>
  <rect class="cls-17" x="69.73" y="355.21" width="103.13" height="73.83"/>
  <polygon class="cls-17" points="82.62 339.41 69.73 355.21 95.51 355.21 82.62 339.41"/>
  <polygon class="cls-17" points="108.4 339.41 95.51 355.21 121.29 355.21 108.4 339.41"/>
  <polygon class="cls-17" points="134.18 339.41 121.29 355.21 147.08 355.21 134.18 339.41"/>
  <polygon class="cls-17" points="159.97 339.41 147.08 355.21 172.86 355.21 159.97 339.41"/>
  <rect class="cls-17" x="420.23" y="355.21" width="77.35" height="73.83"/>
  <polygon class="cls-17" points="433.12 339.41 420.23 355.21 446.01 355.21 433.12 339.41"/>
  <polygon class="cls-17" points="458.9 339.41 446.01 355.21 471.79 355.21 458.9 339.41"/>
  <polygon class="cls-17" points="484.68 339.41 471.79 355.21 497.57 355.21 484.68 339.41"/>
</svg>