<?xml version="1.0" encoding="UTF-8"?>
<svg id="Layer_1" data-name="Layer 1" xmlns="http://www.w3.org/2000/svg" viewBox="0 0 100 100">
  <defs>
    <style>
      .cls-1 {
        fill: #fff;
      }
    </style>
  </defs>
  <g id="house-door-fill">
    <g id="Group_1" data-name="Group 1">
      <path id="Path_4" data-name="Path 4" class="cls-1" d="m45.5,69.5v-10.51c.06-.8.7-1.43,1.5-1.49h6c.8.05,1.45.7,1.5,1.5v10.5c0,.83.67,1.5,1.5,1.5h12c.83,0,1.5-.67,1.5-1.5v-21c0-.4-.16-.78-.44-1.06l-4.06-4.06v-9.88c0-.83-.67-1.5-1.5-1.5h-3c-.83,0-1.5.67-1.5,1.5v3.88l-7.94-7.94c-.59-.59-1.53-.59-2.12,0,0,0,0,0,0,0l-18,18c-.28.28-.44.66-.44,1.06v21c0,.83.67,1.5,1.5,1.5h12c.83,0,1.5-.67,1.5-1.5Z"/>
    </g>
  </g>
</svg>