<?xml version="1.0" encoding="UTF-8"?>
<svg id="Layer_1" data-name="Layer 1" xmlns="http://www.w3.org/2000/svg" viewBox="0 0 555 466.29">
  <defs>
    <style>
      .cls-1 {
        fill: #2587c5;
      }

      .cls-2 {
        fill: #1d4b7b;
      }

      .cls-3 {
        fill: #96ceef;
      }

      .cls-4 {
        fill: #96cff0;
      }

      .cls-5 {
        fill: #3f8fbd;
      }

      .cls-6 {
        fill: #c0aed4;
      }

      .cls-7 {
        fill: #896aaf;
      }
    </style>
  </defs>
  <g>
    <path class="cls-7" d="m345.59,0c-20.25,0-37.59,12.47-44.76,30.15-23.76,3.02-42.14,23.33-42.14,47.92,0,1.14.04,2.28.12,3.41-23.17,16.62-38.15,42.95-38.15,72.59,0,50.29,43.1,91.06,96.27,91.06,5.66,0,11.21-.46,16.6-1.35-45.26-7.43-79.69-44.76-79.69-89.71,0-29.64,14.97-55.97,38.15-72.59-.08-1.12-.12-2.27-.12-3.41,0-24.59,18.38-44.9,42.14-47.92,5.11-12.59,15.38-22.54,28.18-27.22-5.17-1.9-10.76-2.93-16.6-2.93Z"/>
    <path class="cls-6" d="m555,148.52c0,36.12-25.29,66.33-59.13,73.9h0c-5.33,1.19-10.88,1.82-16.58,1.82-.92,0-1.82-.02-2.73-.06-10.39-.36-20.26-2.82-29.17-6.99-5.37,11.54-15.17,20.6-27.22,25.01-5.17,1.89-10.76,2.93-16.6,2.93-7.77,0-15.12-1.84-21.63-5.11-4.8-2.42-9.16-5.61-12.88-9.41-10.59,6.49-22.63,11.04-35.54,13.17-45.26-7.43-79.69-44.76-79.69-89.71,0-29.64,14.97-55.97,38.15-72.59-.08-1.12-.12-2.27-.12-3.41,0-24.59,18.38-44.9,42.14-47.92,5.11-12.59,15.38-22.54,28.18-27.22,10.4,3.8,19.13,11.09,24.79,20.45,8.31-4.23,17.5-6.99,27.23-7.88,2.33-.22,4.7-.33,7.09-.33,5.71,0,11.28.63,16.63,1.83,28.56,6.4,51,28.92,57.31,57.51,34.16,7.32,59.76,37.68,59.76,74.02Z"/>
  </g>
  <rect class="cls-2" x="42.08" y="265.23" width="21.66" height="118.17"/>
  <rect class="cls-2" x="272.98" y="265.23" width="21.66" height="118.17"/>
  <g>
    <rect class="cls-3" x="17.43" y="275.7" width="303.08" height="18.46"/>
    <rect class="cls-3" x="17.43" y="297.43" width="303.08" height="18.46"/>
    <rect class="cls-3" x="17.43" y="319.15" width="303.08" height="18.46"/>
    <rect class="cls-3" x="17.43" y="340.88" width="303.08" height="18.46"/>
    <rect class="cls-4" y="362.6" width="337.95" height="24.22"/>
  </g>
  <rect class="cls-1" x="31.73" y="389.39" width="15.47" height="76.64" transform="translate(15.76 -1.16) rotate(2.11)"/>
  <rect class="cls-1" x="50.58" y="386.82" width="15.47" height="75.78"/>
  <rect class="cls-1" x="275.37" y="386.82" width="15.47" height="75.78"/>
  <rect class="cls-1" x="295.12" y="389.03" width="15.47" height="76.64" transform="translate(-29.08 22.17) rotate(-4)"/>
  <rect class="cls-2" x="6.9" y="386.82" width="324.16" height="5.28"/>
  <polygon class="cls-5" points="362.18 444.37 399.16 444.37 385.44 148.94 377.21 149.16 362.18 444.37"/>
  <polygon class="cls-5" points="378.67 198.43 387.74 206.11 427.64 152.18 425.59 150.5 378.67 198.43"/>
  <polygon class="cls-5" points="376.31 262.15 389.42 255.44 344.03 178.62 341.14 180.17 376.31 262.15"/>
</svg>