<?xml version="1.0" encoding="UTF-8"?>
<svg id="Layer_1" data-name="Layer 1" xmlns="http://www.w3.org/2000/svg" viewBox="0 0 172.22 144.64">
  <defs>
    <style>
      .cls-1 {
        fill: #7aa27b;
      }

      .cls-2 {
        fill: #937258;
      }

      .cls-3 {
        fill: #725a48;
      }

      .cls-4 {
        fill: #8cbf8c;
      }
    </style>
  </defs>
  <g>
    <path class="cls-1" d="m107.24,0c-6.28,0-11.66,3.87-13.89,9.36-7.37.94-13.08,7.24-13.08,14.87,0,.35.01.71.04,1.06-7.19,5.16-11.84,13.33-11.84,22.53,0,15.6,13.38,28.26,29.87,28.26,1.76,0,3.48-.14,5.15-.42-14.05-2.31-24.73-13.89-24.73-27.84,0-9.2,4.65-17.37,11.84-22.53-.03-.35-.04-.7-.04-1.06,0-7.63,5.7-13.93,13.08-14.87,1.58-3.91,4.77-7,8.74-8.45-1.61-.59-3.34-.91-5.15-.91Z"/>
    <path class="cls-4" d="m172.22,46.09c0,11.21-7.85,20.58-18.35,22.93h0c-1.66.37-3.38.57-5.14.57-.28,0-.57,0-.85-.02-3.23-.11-6.29-.88-9.05-2.17-1.67,3.58-4.71,6.39-8.45,7.76-1.61.59-3.34.91-5.15.91-2.41,0-4.69-.57-6.71-1.58-1.49-.75-2.84-1.74-4-2.92-3.29,2.01-7.02,3.43-11.03,4.09-14.05-2.31-24.73-13.89-24.73-27.84,0-9.2,4.65-17.37,11.84-22.53-.03-.35-.04-.7-.04-1.06,0-7.63,5.7-13.93,13.08-14.87,1.58-3.91,4.77-7,8.74-8.45,3.23,1.18,5.94,3.44,7.69,6.34,2.58-1.31,5.43-2.17,8.45-2.45.72-.07,1.46-.1,2.2-.1,1.77,0,3.5.2,5.16.57,8.86,1.99,15.83,8.98,17.78,17.85,10.6,2.27,18.55,11.69,18.55,22.97Z"/>
  </g>
  <rect x="13.06" y="82.3" width="6.72" height="36.67"/>
  <rect x="84.71" y="82.3" width="6.72" height="36.67"/>
  <g>
    <rect class="cls-2" x="5.41" y="85.55" width="94.05" height="5.73"/>
    <rect class="cls-2" x="5.41" y="92.3" width="94.05" height="5.73"/>
    <rect class="cls-2" x="5.41" y="99.04" width="94.05" height="5.73"/>
    <rect class="cls-2" x="5.41" y="105.78" width="94.05" height="5.73"/>
    <rect class="cls-2" y="112.52" width="104.87" height="7.52"/>
  </g>
  <rect x="2.14" y="120.04" width="100.59" height="1.64"/>
  <rect x="15.7" y="120.04" width="4.8" height="23.52"/>
  <rect x="91.58" y="120.72" width="4.8" height="23.78" transform="translate(-9.02 6.88) rotate(-4)"/>
  <rect x="85.45" y="120.04" width="4.8" height="23.52"/>
  <polygon class="cls-3" points="112.39 137.89 123.87 137.89 119.61 46.22 117.05 46.29 112.39 137.89"/>
  <polygon class="cls-3" points="117.51 61.57 120.32 63.96 132.7 47.22 132.06 46.7 117.51 61.57"/>
  <polygon class="cls-3" points="116.77 81.35 120.84 79.27 106.76 55.43 105.86 55.91 116.77 81.35"/>
</svg>