<?xml version="1.0" encoding="UTF-8"?>
<svg id="Layer_1" data-name="Layer 1" xmlns="http://www.w3.org/2000/svg" viewBox="0 0 100 100">
  <defs>
    <style>
      .cls-1 {
        fill: #fff;
      }
    </style>
  </defs>
  <g id="glass">
    <path id="Path_5" data-name="Path 5" class="cls-1" d="m53.12,53.1v15.64h6.25c.84-.02,1.64.32,2.22.93.59.59.92,1.39.9,2.22,0,1.7-1.36,3.09-3.07,3.1-.02,0-.04,0-.06,0h-18.75c-.82,0-1.62-.32-2.2-.9-.6-.57-.94-1.37-.93-2.2,0-1.73,1.4-3.13,3.13-3.15h6.25v-15.64l-21.44-23.41c-.28-.47-.43-1.01-.44-1.57-.02-.84.32-1.65.93-2.23.58-.59,1.37-.91,2.2-.9h43.75c.82,0,1.62.32,2.2.9.61.58.95,1.39.93,2.23,0,.55-.16,1.09-.44,1.57l-21.44,23.41Zm-25-24.97l11.67,12.46h4.25l.34-.64-3.56-6.4c-.19-.37-.24-.8-.12-1.2.23-.82,1.08-1.3,1.9-1.07.4.11.74.36.95.71l3.22,5.82c.53-.22,1.09-.33,1.66-.34.98-.01,1.93.3,2.71.88.78.56,1.37,1.34,1.68,2.25h7.37l11.67-12.46H28.13Z"/>
  </g>
</svg>